<svg xmlns="http://www.w3.org/2000/svg" viewBox="0 0 1600 900" preserveAspectRatio="xMidYMid slice">
  <defs>
    <pattern id="circuit" x="0" y="0" width="200" height="200" patternUnits="userSpaceOnUse">
      <g stroke="#2dd4bf" stroke-width="1" fill="none" stroke-opacity="0.35">
        <path d="M 0 40 L 60 40 L 60 100 L 140 100 L 140 40 L 200 40"/>
        <path d="M 0 160 L 80 160 L 80 120 L 160 120 L 160 200"/>
        <path d="M 40 0 L 40 60 L 100 60 L 100 140 L 40 140 L 40 200"/>
        <path d="M 180 0 L 180 80 L 120 80 L 120 160"/>
      </g>
      <g stroke="#2dd4bf" stroke-width="1" fill="none" stroke-opacity="0.22">
        <path d="M 0 0 L 40 40"/>
        <path d="M 160 200 L 200 160"/>
      </g>
      <g fill="#2dd4bf" fill-opacity="0.6">
        <rect x="56" y="36" width="8" height="8"/>
        <rect x="136" y="36" width="8" height="8"/>
        <rect x="96" y="56" width="8" height="8"/>
        <rect x="96" y="136" width="8" height="8"/>
        <rect x="76" y="116" width="8" height="8"/>
        <rect x="156" y="116" width="8" height="8"/>
        <rect x="36" y="136" width="8" height="8"/>
        <rect x="116" y="76" width="8" height="8"/>
        <rect x="176" y="76" width="8" height="8"/>
      </g>
      <g fill="#5eead4" fill-opacity="0.75">
        <circle cx="60" cy="40" r="3"/>
        <circle cx="140" cy="40" r="3"/>
        <circle cx="100" cy="60" r="3"/>
        <circle cx="100" cy="140" r="3"/>
        <circle cx="160" cy="120" r="3"/>
        <circle cx="40" cy="140" r="3"/>
      </g>
      <g stroke="#2dd4bf" stroke-width="1.2" stroke-opacity="0.55" fill="none">
        <rect x="140" y="155" width="40" height="30" rx="2"/>
      </g>
      <g fill="#2dd4bf" fill-opacity="0.5">
        <rect x="144" y="160" width="2" height="3"/>
        <rect x="150" y="160" width="2" height="3"/>
        <rect x="156" y="160" width="2" height="3"/>
        <rect x="162" y="160" width="2" height="3"/>
        <rect x="168" y="160" width="2" height="3"/>
        <rect x="174" y="160" width="2" height="3"/>
        <rect x="144" y="177" width="2" height="3"/>
        <rect x="150" y="177" width="2" height="3"/>
        <rect x="156" y="177" width="2" height="3"/>
        <rect x="162" y="177" width="2" height="3"/>
        <rect x="168" y="177" width="2" height="3"/>
        <rect x="174" y="177" width="2" height="3"/>
      </g>
    </pattern>
  </defs>
  <rect width="1600" height="900" fill="url(#circuit)"/>

  <g transform="translate(620 280)">
    <rect x="0" y="0" width="360" height="340" rx="6" stroke="#2dd4bf" stroke-width="2" stroke-opacity="0.55" fill="none"/>
    <rect x="30" y="30" width="300" height="280" rx="3" stroke="#2dd4bf" stroke-width="1" stroke-opacity="0.4" fill="none"/>
    <g fill="#2dd4bf" fill-opacity="0.55">
      <rect x="50" y="-8" width="4" height="10"/>
      <rect x="90" y="-8" width="4" height="10"/>
      <rect x="130" y="-8" width="4" height="10"/>
      <rect x="170" y="-8" width="4" height="10"/>
      <rect x="210" y="-8" width="4" height="10"/>
      <rect x="250" y="-8" width="4" height="10"/>
      <rect x="290" y="-8" width="4" height="10"/>
      <rect x="50" y="338" width="4" height="10"/>
      <rect x="90" y="338" width="4" height="10"/>
      <rect x="130" y="338" width="4" height="10"/>
      <rect x="170" y="338" width="4" height="10"/>
      <rect x="210" y="338" width="4" height="10"/>
      <rect x="250" y="338" width="4" height="10"/>
      <rect x="290" y="338" width="4" height="10"/>
      <rect x="-8" y="50" width="10" height="4"/>
      <rect x="-8" y="90" width="10" height="4"/>
      <rect x="-8" y="130" width="10" height="4"/>
      <rect x="-8" y="170" width="10" height="4"/>
      <rect x="-8" y="210" width="10" height="4"/>
      <rect x="-8" y="250" width="10" height="4"/>
      <rect x="-8" y="290" width="10" height="4"/>
      <rect x="358" y="50" width="10" height="4"/>
      <rect x="358" y="90" width="10" height="4"/>
      <rect x="358" y="130" width="10" height="4"/>
      <rect x="358" y="170" width="10" height="4"/>
      <rect x="358" y="210" width="10" height="4"/>
      <rect x="358" y="250" width="10" height="4"/>
      <rect x="358" y="290" width="10" height="4"/>
    </g>
    <text x="180" y="185" font-family="monospace" font-size="54" font-weight="700" fill="#2dd4bf" fill-opacity="0.55" text-anchor="middle">NPU</text>
  </g>
</svg>
